<svg xmlns="http://www.w3.org/2000/svg" width="72px" height="85px">
    <path d="M24.53 46.28l-2.11 0.3l-0.2-1.42c-0.06-0.41-0.12-0.66-0.18-0.76c-0.06-0.09-0.17-0.13-0.32-0.11 c-0.17 0.03-0.27 0.1-0.3 0.23c-0.03 0.13-0.02 0.4 0 0.81l0.53 3.77c0.06 0.4 0.1 0.7 0.2 0.8 c0.07 0.1 0.2 0.2 0.3 0.14c0.16-0.02 0.25-0.1 0.28-0.22c0.03-0.13 0.02-0.41-0.05-0.86l-0.14-1.02l2.11-0.3l0.04 0.3 c0.12 0.8 0.1 1.4 0.1 1.81c-0.07 0.37-0.29 0.71-0.66 1.03c-0.37 0.32-0.85 0.53-1.44 0.61c-0.62 0.08-1.15 0.04-1.58-0.12 c-0.43-0.17-0.74-0.44-0.93-0.82c-0.19-0.38-0.33-0.97-0.45-1.76l-0.33-2.37c-0.08-0.59-0.12-1.03-0.13-1.33 c0-0.3 0.08-0.6 0.24-0.9c0.16-0.3 0.41-0.55 0.74-0.76c0.33-0.2 0.73-0.34 1.18-0.4c0.62-0.09 1.15-0.04 1.6 0.1 c0.44 0.2 0.8 0.5 0.9 0.79c0.18 0.3 0.3 0.9 0.4 1.65L24.53 46.28L24.53 46.28z M29.73 42.21l1.79 8.1l-2.18 0.2 L29.13 49l-0.76 0.05l-0.02 1.48l-2.2 0.15l0.51-8.26L29.73 42.21L29.73 42.21z M28.97 47.55c-0.17-0.92-0.36-2.06-0.56-3.41 c-0.11 1.58-0.16 2.73-0.16 3.46L28.97 47.55L28.97 47.55z M39.12 42.06v8.2h-1.86v-5.54l-0.75 5.54h-1.32l-0.79-5.41v5.41h-1.86 v-8.2h2.76c0.08 0.5 0.2 1.1 0.3 1.74l0.29 2.09l0.49-3.83H39.12L39.12 42.06z M45.71 48.83c-0.04 0.61-0.15 1.04-0.33 1.3 c-0.18 0.26-0.43 0.41-0.76 0.45c-0.33 0.04-0.84 0.04-1.54-0.01l-2.46-0.17l0.57-8.19l4.17 0.29l-0.1 1.42l-2.04-0.14l-0.1 1.4 l0.33 0.02c0.66 0.1 1.1 0.1 1.5 0.22c0.33 0.1 0.6 0.3 0.7 0.56s0.2 0.7 0.2 1.26L45.71 48.83L45.71 48.83z M43.59 48.4 l0.08-1.18c0.03-0.35 0-0.56-0.06-0.63c-0.06-0.08-0.26-0.13-0.58-0.17l-0.19 2.69c0.27 0 0.5 0 0.56-0.07 C43.5 49 43.6 48.8 43.6 48.43L43.59 48.43z M52.22 48.36c-0.13 0.82-0.24 1.39-0.33 1.72c-0.1 0.33-0.26 0.62-0.51 0.9 c-0.25 0.25-0.55 0.42-0.92 0.52c-0.37 0.09-0.78 0.11-1.24 0.03c-0.43-0.07-0.81-0.2-1.13-0.4c-0.33-0.2-0.57-0.45-0.73-0.77 c-0.16-0.32-0.24-0.64-0.23-0.99c0.02-0.34 0.09-0.93 0.22-1.76l0.22-1.39c0.13-0.81 0.24-1.39 0.33-1.72 c0.09-0.33 0.26-0.62 0.51-0.87c0.24-0.25 0.55-0.42 0.92-0.52c0.37-0.1 0.78-0.11 1.24-0.04c0.43 0.1 0.8 0.2 1.1 0.4 c0.32 0.2 0.6 0.5 0.7 0.77s0.24 0.7 0.2 0.98c-0.01 0.34-0.09 0.93-0.22 1.76L52.22 48.36L52.22 48.36z M50.54 45.4 c0.06-0.38 0.08-0.62 0.05-0.73c-0.02-0.11-0.1-0.18-0.23-0.2c-0.11-0.02-0.2 0.01-0.27 0.09c-0.07 0.08-0.14 0.32-0.21 0.7 l-0.6 3.78c-0.08 0.47-0.1 0.77-0.08 0.88c0.02 0.1 0.1 0.2 0.2 0.21c0.14 0 0.25-0.03 0.3-0.15c0.06-0.12 0.13-0.42 0.2-0.9 L50.54 45.36z" fill="#1A60C9"/>
    <path d="M21.56 35.13v-3.16l-1.81 2.04l-1.81-1.28v3.18l0 0 c-0.56 0.14-1.11 0.28-1.65 0.43v0c-0.92 0.25-1.81 0.53-2.67 0.81c0.01 0.2 0 0.5 0 0.75c0.07 2 0.1 4 0.2 6.1 c0.28-0.1 0.57-0.19 0.86-0.29l0 0c0.25-0.08 0.5-0.16 0.76-0.23l0.08-0.02l0.06-0.02l0.16-0.05l0.01 0l0.01 0l0.01 0l0.2-0.06 l0.06-0.02l0.04-0.01l0.12-0.04l0.06-0.01l0.01 0l0.11-0.03l0.06-0.02l0.06-0.02l0.06-0.02l0.06-0.01l0.06-0.02l0.06-0.01 l0.06-0.02l0.06-0.01l0.05-0.01l0.01 0l0.02-0.01l0.16-0.04l0.06-0.01l0.11-0.03l0.11-0.03l0.02 0C22.56 41.6 29 40.8 36 40.8 c6.59 0 12.7 0.7 17.8 1.91l0.07 0.02l0.13 0.03l0.01 0l0.01 0l0.07 0.02l0.07 0.02l0.07 0.02l0.06 0.01l0.01 0l0.07 0 l0.21 0.05l0.01 0l0.28 0.07l0.01 0c0.18 0.1 0.4 0.1 0.5 0.14l0.01 0l0.02 0l0.01 0c0.65 0.2 1.3 0.4 1.9 0.55l0 0 c0.29 0.1 0.6 0.2 0.9 0.29c0.07-2.02 0.09-4.05 0.16-6.07c0.01-0.25 0.02-0.5 0.03-0.74c-0.86-0.29-1.74-0.55-2.65-0.81l0 0 c-0.55-0.15-1.1-0.3-1.66-0.44v0v-3.18l-1.81 1.28l-1.81-2.04v3.16l0 0c-1.19-0.22-2.42-0.42-3.66-0.59h0v-3.18l-1.81 1.5 l-1.81-1.85v3.16v0c-1.2-0.11-2.42-0.18-3.66-0.24v-5.75l-1.21 1.15v-6.94l-1.02 0.93L36 15.87l-1.26 7.43l-1.02-0.93v6.94 l-1.21-1.15v5.75c-1.24 0.05-2.46 0.13-3.66 0.24v0v-3.16l-1.81 1.85l-1.81-1.47v3.18h0C23.98 34.7 22.8 34.9 21.6 35.1 L21.56 35.13z" fill="#D02110"/>
    <path d="M33.8 83.75c-4.29-2.16-8.44-4.52-12.22-7.25 c0.52-0.54 1.03-1.08 1.55-1.62c0.62-0.65 1.23-1.31 1.87-1.95c3.43 2.4 7.2 4.5 11 6.44c3.97-2 7.87-4.18 11.4-6.72 c1.35 1 2.6 2.1 3.9 3.22c-4 2.99-8.46 5.56-13.07 7.88l-2.2 1.1L33.8 83.75L33.8 83.75z M14.88 70.8 c-1.55-1.57-2.97-3.25-4.24-5.04c2.38 0.9 5 1.6 7.4 2.09C16.97 68.8 15.9 69.8 14.9 70.8L14.88 70.8z M4.4 49.7 c-0.2-1.58-0.3-3.18-0.36-4.77c-0.08-2.22-0.1-4.45-0.18-6.67c-0.09-2.51-0.27-5.01-0.6-7.5c-0.38-2.9-0.95-5.78-1.69-8.61 l-1.13-4.35l4.23-1.5c6.1-2.17 9.82-7.08 12.03-12.97l1.19-3.18h36.2l1.19 3.18c2.21 5.9 5.9 10.8 12 12.97l4.23 1.5 l-1.13 4.35c-0.73 2.83-1.31 5.71-1.69 8.61c-0.33 2.49-0.5 4.99-0.6 7.5c-0.04 0.98-0.06 1.97-0.08 2.95l-0.07-0.05l-0.02 0.8 c-0.02 0.98-0.04 1.96-0.08 2.95c-0.05 1.34-0.13 2.69-0.29 4.02l0 0.04l-0.03 0.19c-0.06 0.51-0.13 1.02-0.21 1.53l-0.01 0.08v0 c-0.03 0.16-0.05 0.31-0.08 0.47c-0.15 0.83-0.34 1.65-0.55 2.46c-0.07 0.12-0.14 0.25-0.24 0.39c-1.32 1.93-4.08 3.36-6.49 4.3 c1.14-2.39 2-4.98 2.51-7.82c0.35-1.93 0.48-3.89 0.56-5.84c0.08-2.22 0.1-4.45 0.18-6.67c0.09-2.66 0.29-5.31 0.63-7.95 c0.4-3.11 1.01-6.17 1.8-9.2C58.2 18.3 53.4 12.3 50.7 5.05H36H21.3c-2.73 7.3-7.5 13.22-14.98 15.88c0.79 3 1.4 6.1 1.8 9.2 c0.34 2.6 0.5 5.3 0.6 7.95c0.08 2.2 0.1 4.5 0.2 6.67c0.07 1.9 0.2 3.9 0.6 5.84c0.52 2.9 1.4 5.5 2.5 7.9 c-2.43-0.95-5.27-2.39-6.6-4.35c-0.09-0.14-0.16-0.27-0.24-0.39c-0.21-0.81-0.39-1.63-0.55-2.46c-0.03-0.16-0.06-0.31-0.08-0.47 l0 0l-0.01-0.08C4.49 50.4 4.4 50 4.4 49.7L4.4 49.7z M61.66 65.32c-1.13 1.65-2.39 3.19-3.75 4.7 c-1.13-0.88-2.29-1.73-3.5-2.52v0C56.6 67 59.2 66.3 61.7 65.32z" fill="#D02110"/>
    <path d="M18.91 60.44c-2.23-3.07-3.85-6.6-4.6-10.72 c-0.31-1.7-0.42-3.43-0.48-5.15c-0.08-2.22-0.1-4.44-0.18-6.66c-0.1-2.81-0.31-5.62-0.67-8.41c-0.25-1.93-0.58-3.85-0.97-5.76 c5.66-3.1 9.77-7.97 12.54-13.78h22.91c2.76 5.8 6.9 10.7 12.5 13.78c-0.39 1.91-0.72 3.83-0.97 5.8 c-0.37 2.79-0.57 5.6-0.67 8.41c-0.08 2.22-0.1 4.44-0.18 6.66c-0.06 1.72-0.17 3.46-0.48 5.15c-0.75 4.12-2.37 7.65-4.6 10.7 c1.89-0.41 3.63-0.89 5.21-1.42c0.59-0.2 1.16-0.41 1.71-0.62c1.13-2.38 1.99-4.97 2.5-7.8c0.35-1.93 0.48-3.89 0.56-5.84 c0.08-2.22 0.1-4.45 0.18-6.67c0.09-2.66 0.29-5.31 0.63-7.95c0.4-3.11 1.01-6.17 1.8-9.2C58.2 18.3 53.4 12.3 50.7 5.05H36 H21.3c-2.73 7.3-7.5 13.22-14.98 15.88c0.79 3 1.4 6.1 1.8 9.2c0.34 2.6 0.5 5.3 0.6 7.95c0.08 2.2 0.1 4.5 0.2 6.7 c0.07 1.9 0.2 3.9 0.6 5.84c0.51 2.8 1.4 5.4 2.5 7.8c0.54 0.2 1.1 0.4 1.7 0.62C15.28 59.5 17 60 18.9 60.44z" fill="#1A60C9"/>
    <path d="M36 79.37c3.97-2 7.87-4.18 11.4-6.72 c-1.44-1.05-2.93-1.96-4.47-2.55l-0.29-0.11c-2.13 1.4-4.37 2.68-6.64 3.88c-2.46-1.3-4.89-2.7-7.19-4.24 c-0.36 0.25-0.7 0.51-1.05 0.79c-0.97 0.78-1.88 1.64-2.76 2.53C28.43 75.3 32.2 77.4 36 79.37z" fill="#1A60C9"/>
    <polygon points="36,10.6 36.8,12.5 38.8,12.6 37.3,13.9 37.8,15.9 36,14.9 34.2,15.9 34.7,13.9 33.2,12.6 35.2,12.5" fill="#D02110"/>
    <path d="M19.6 3.92c0.72 0 1.32-0.59 1.32-1.32 c0-0.72-0.59-1.32-1.32-1.32c-0.72 0-1.32 0.59-1.32 1.32C18.28 3.3 18.9 3.9 19.6 3.92z" fill="#FFFFFF"/>
    <path d="M52.4 3.92c0.72 0 1.31-0.59 1.31-1.32 c0-0.72-0.59-1.32-1.31-1.32s-1.32 0.59-1.32 1.32C51.08 3.3 51.7 3.9 52.4 3.92z" fill="#FFFFFF"/>
    <path d="M3.38 20.68c0.72 0 1.32-0.59 1.32-1.32 c0-0.72-0.59-1.31-1.32-1.31c-0.73 0-1.32 0.59-1.32 1.31C2.07 20.1 2.7 20.7 3.4 20.68z" fill="#FFFFFF"/>
    <path d="M36 83.42c0.72 0 1.32-0.59 1.32-1.32c0-0.72-0.59-1.32-1.32-1.32 s-1.32 0.59-1.32 1.32C34.68 82.8 35.3 83.4 36 83.42z" fill="#FFFFFF"/>
    <circle cx="68.3" cy="19.5" r="1.3" fill="#FFFFFF"/>
    <ellipse cx="6.5" cy="44.1" rx="1.3" ry="1.3" fill="#FFFFFF"/>
    <ellipse cx="65.5" cy="44.1" rx="1.3" ry="1.3" fill="#FFFFFF"/>
    <path d="M44.01 63c0.43 0.9 0.5 2.1 0.5 3 c-0.04 1.15-0.53 2.79-1.44 3.68c4.31 1.7 8.3 5.8 11.7 8.81c1.87 1.7 3.8 3.5 5.9 4.92c1.01-2.55 1.61-5.75 3.47-7.86 c-0.86-0.66-1.69-1.34-2.53-2.03c-2.42-2.01-4.77-3.99-7.42-5.71C50.99 65.8 47.6 64.2 44 63z" fill="#1A60C9"/>
    <path d="M36.74 70.94c1.95-0.14 3.64-0.59 5.51-1.21 c2.02-0.74 2.49-6.64 0.4-7.64c-1.82-0.82-3.73-1.3-5.71-1.53C39.21 62.9 38.9 68.6 36.7 70.94z" fill="#1A60C9"/>
    <path d="M36.92 61.01c-0.2-0.24-0.44-0.46-0.7-0.63 c-0.73-0.07-1.49-0.08-2.23-0.03c0.04 0 0.1 0 0.1 0.03C35.01 60.6 36 60.8 36.9 61.01z" fill="#1A60C9"/>
    <path d="M26.14 61.61c0.79 0.1 2 0.1 2.7 0.4 c0.33 0.2 0.6 0.5 1 0.79c0.52 0.5 1 0.9 1.6 1.36c2.04 1.7 3.9 2.8 6.4 3.69c0.48-1.99 0.46-4.77-0.71-6.49 c-1-0.2-2.05-0.41-3.03-0.68c-1.02-0.28-2.14-0.38-3.19-0.36C29.44 60.4 27.3 60.6 26.1 61.61z" fill="#1A60C9"/>
    <path d="M14.22 72.08c2.01 2 2.5 5.2 3.2 7.8 c1.89-1.71 3.62-3.51 5.37-5.36c1.48-1.57 2.98-3.17 4.67-4.52c2-1.6 4.09-2.69 6.52-3.46c-1.71-1-2.99-2.17-4.49-3.47 c-0.37-0.32-0.65-0.61-1.08-0.84C22.79 64 18.2 68 14.2 72.08z" fill="#1A60C9"/>
    <path d="M36.66 70.36c0.45-0.6 0.78-1.34 0.99-2.08 c-1.08-0.39-2.13-0.84-3.13-1.39c-1.8 0.53-3.47 1.26-5.04 2.26c-0.12 0.08-0.21 0.14-0.32 0.21c2.01 1.1 4.4 1.9 6.9 1.6 C36.28 70.8 36.5 70.6 36.7 70.36z" fill="#1A60C9"/>
    <path d="M3.5 42.07c-2.31 1.88-0.89 10.29-0.27 15.3 c0.65 5.3 5.5 8.1 15.3 10.11c0.06-0.06 0.22-0.18 0.29-0.23c2.59-2.13 5.43-3.97 8.62-5.08c-5.36-0.5-10.15-1.45-13.97-2.74 c-4.09-1.38-7.03-3.1-8.38-5.08c-0.03-0.05-0.25-0.42-0.28-0.46c-0.22-0.83-0.41-1.68-0.57-2.55c-0.03-0.18-0.07-0.37-0.1-0.55v0 c-0.09-0.51-0.16-1.03-0.22-1.54l0-0.02l0-0.04l0-0.04l0 0l0-0.04l0-0.04l0-0.02l0-0.02h0l0-0.04l0 0 c-0.15-1.35-0.23-2.7-0.29-4.06C3.55 44 3.5 43 3.5 42.07z" fill="#1A60C9"/>
    <path d="M68.41 42c2.43 1.8 1 10.3 0.4 15.4 c-0.73 4.79-5.81 7.96-14.89 9.74c-3.04-1.87-6.47-3.48-10.19-4.67c-0.04-0.06-0.09-0.12-0.14-0.18 c5.75-0.46 10.89-1.46 14.93-2.83c4.1-1.38 7.03-3.1 8.38-5.08c0.03-0.05 0.25-0.42 0.28-0.46c0.21-0.83 0.41-1.68 0.57-2.55 c0.04-0.18 0.07-0.37 0.1-0.55v0c0.08-0.51 0.16-1.03 0.22-1.54l0-0.02l0-0.04l0-0.04l0 0l0-0.04l0-0.04l0-0.02l0-0.02l0 0 l0.01-0.04v0c0.15-1.35 0.23-2.7 0.28-4.06C68.37 44 68.4 43 68.4 42z" fill="#1A60C9"/>
    <path d="M22.92 38.33c0.06 0.3 0.1 0.6 0.1 0.73c-0.01 0.21-0.07 0.41-0.18 0.6c-0.18 0.29-0.57 0.49-1.19 0.6 L21.4 40.3l0.15 0.84l-1.33 0.23l-0.15-0.84l-0.2 0.04c-0.62 0.11-1.06 0.06-1.32-0.16c-0.17-0.14-0.3-0.3-0.38-0.5 c-0.06-0.14-0.12-0.38-0.17-0.71l-0.02-0.09c-0.06-0.33-0.09-0.58-0.08-0.73c0.01-0.21 0.07-0.41 0.18-0.6 c0.18-0.29 0.57-0.48 1.19-0.59c0.05-0.01 0.11-0.02 0.2-0.04l-0.15-0.86l1.33-0.23l0.15 0.86c0.11-0.01 0.19-0.02 0.23-0.03 c0.62-0.11 1.06-0.06 1.3 0.15c0.17 0.1 0.3 0.3 0.4 0.5c0.06 0.1 0.1 0.4 0.2 0.71L22.92 38.33L22.92 38.33z M21.65 38.9 l-0.12-0.66c-0.03-0.17-0.09-0.31-0.18-0.4c-0.09-0.09-0.18-0.13-0.28-0.11l-0.14 0.02l0.32 1.8l0.14-0.02 c0.1-0.02 0.18-0.09 0.23-0.2S21.68 39 21.6 38.85L21.65 38.85z M19.93 39.75l-0.32-1.8l-0.11 0 c-0.1 0.02-0.17 0.08-0.22 0.2c-0.05 0.12-0.06 0.26-0.03 0.44l0.12 0.66c0.03 0.2 0.1 0.3 0.2 0.4 c0.09 0.1 0.2 0.1 0.3 0.11L19.93 39.75L19.93 39.75z M23.45 35.57l2.22-0.27l0.13 1.02l-0.89 0.11l0.12 0.97l0.83-0.1 l0.12 0.98l-0.83 0.1l0.14 1.13l0.98-0.12l0.13 1.03l-2.31 0.28L23.45 35.57L23.45 35.57z M31.03 40.04l-4.01 0.29l-0.08-1.07 l0.27-0.02c0.11-0.43 0.19-1 0.24-1.69c0.04-0.69 0.04-1.45-0.02-2.27l-0.01-0.16l2.97-0.21l0.29 4.07l0.27-0.02L31.03 40 L31.03 40.04z M29.34 39.08l-0.21-3.06l-0.4 0.03l0 0.04c0.07 1 0 2-0.11 3.04L29.34 39.08L29.34 39.08z M31.77 34.8 l2.24-0.04l0.02 1.03l-0.9 0.02l0.02 0.98l0.84-0.01L34 37.8l-0.84 0.01l0.02 1.14l0.99-0.02l0.02 1.03l-2.33 0.04L31.77 34.8 L31.77 34.84z M34.98 34.72h1.35c0.37 0 0.7 0 0.8 0.09c0.2 0.1 0.3 0.1 0.5 0.25c0.1 0.1 0.2 0.2 0.2 0.4 c0.04 0.1 0.1 0.4 0.1 0.72v0.45c0 0.33-0.04 0.57-0.1 0.72c-0.07 0.15-0.19 0.27-0.38 0.35c-0.18 0.08-0.42 0.12-0.71 0.1 h-0.36v2.08h-1.34V34.72L34.98 34.72z M36.32 35.6v1.31c0.04 0 0.1 0 0.1 0c0.12 0 0.21-0.03 0.26-0.09 c0.05-0.06 0.07-0.19 0.07-0.38v-0.42c0-0.17-0.03-0.29-0.08-0.34C36.61 35.6 36.5 35.6 36.3 35.6L36.32 35.6z M41.16 34.9 l0.59 5.19l-1.38-0.05l-0.03-0.93l-0.48-0.02L39.75 40l-1.39-0.05l0.86-5.14L41.16 34.88L41.16 34.88z M40.33 38.2 c-0.05-0.59-0.09-1.31-0.13-2.17c-0.17 0.98-0.28 1.7-0.33 2.16L40.33 38.17L40.33 38.17z M45.73 40.38l-3.35-0.28l0.45-5.15 l1.34 0.12l-0.36 4.12l0.4 0.03l0.36-4.12l1.34 0.12l-0.36 4.12l0.27 0.02L45.73 40.38L45.73 40.38z M49.47 40.92l-1.11-0.16 l0.33-2.33l-1.02 2.23l-1.17-0.16l0.72-5.12l1.11 0.16l-0.32 2.31l1.07-2.2l1.11 0.16L49.47 40.92L49.47 40.92z M53.31 41.7 l-1.32-0.26l0.44-2.28c-0.16-0.03-0.28-0.03-0.34 0.02c-0.06 0.05-0.11 0.16-0.14 0.35l-0.36 1.83l-1.23-0.24l0.3-1.51 c0.05-0.26 0.1-0.45 0.15-0.58c0.05-0.13 0.14-0.23 0.26-0.29c0.12-0.07 0.3-0.11 0.53-0.12c-0.29-0.09-0.48-0.21-0.54-0.37 c-0.06-0.16-0.05-0.43 0.02-0.81c0.06-0.34 0.16-0.59 0.28-0.77c0.12-0.17 0.27-0.29 0.44-0.34c0.18-0.05 0.37-0.07 0.58-0.05 c0.21 0 0.5 0.1 1 0.16l0.94 0.18L53.31 41.68L53.31 41.68z M52.59 38.34l0.22-1.12l-0.06-0.01 c-0.11-0.02-0.2-0.01-0.26 0.02s-0.12 0.14-0.14 0.3l-0.06 0.28c-0.04 0.19-0.04 0.3 0 0.38C52.31 38.3 52.4 38.3 52.6 38.34z " fill="#FFFFFF"/>
    <rect x="49.1" y="52.9" transform="matrix(0.989 0.148 -0.148 0.989 8.8252 -6.7707)" width="1.6" height="6.1" fill="#D02110"/>
    <path d="M46.82 56.91l0.13-0.87c0.04-0.25 0.04-0.41-0.01-0.47c-0.04-0.06-0.18-0.12-0.42-0.16l-0.3 2 c0.2 0 0.3 0 0.41-0.01C46.72 57.3 46.8 57.2 46.8 56.91L46.82 56.91z M48.36 57.33c-0.07 0.44-0.17 0.76-0.32 0.9 c-0.15 0.18-0.34 0.27-0.59 0.29c-0.24 0.01-0.63-0.02-1.14-0.1l-1.81-0.27l0.91-6.01l1.56 0.24l-0.31 2.06l0.24 0 c0.48 0.1 0.8 0.2 1.1 0.25c0.24 0.1 0.4 0.2 0.5 0.46c0.09 0.2 0.1 0.5 0 0.94L48.36 57.33z" fill="#D02110"/>
    <path d="M41.86 55.29l-0.09 1.7c0.22 0 0.37-0.03 0.43-0.08c0.07-0.06 0.11-0.21 0.12-0.46l0.03-0.57 c0.02-0.26-0.01-0.42-0.06-0.48C42.23 55.4 42.1 55.3 41.9 55.29L41.86 55.29z M41.98 52.99l-0.07 1.4 c0.07 0 0.1 0 0.2 0.01c0.16 0 0.26-0.03 0.3-0.1c0.05-0.07 0.08-0.29 0.1-0.65c0.01-0.19 0-0.32-0.03-0.4 c-0.03-0.08-0.07-0.13-0.13-0.15C42.25 53 42.1 53 42 52.99L41.98 52.99z M40.45 51.87l1.58 0.1 c0.5 0 0.9 0.1 1.1 0.18c0.25 0.1 0.5 0.3 0.6 0.5c0.15 0.2 0.2 0.6 0.2 1.15c-0.02 0.35-0.09 0.6-0.21 0.7 c-0.12 0.13-0.34 0.23-0.67 0.29c0.36 0.1 0.6 0.2 0.7 0.45c0.12 0.2 0.2 0.5 0.1 0.89l-0.03 0.6 c-0.02 0.41-0.09 0.71-0.19 0.9c-0.1 0.2-0.26 0.32-0.47 0.38c-0.21 0.06-0.63 0.08-1.26 0.04l-1.82-0.1L40.45 51.87z" fill="#D02110"/>
    <path d="M35.88 51.77h1.59l0.01 2.57c0.3-0.01 0.45-0.17 0.46-0.5l0.03-1.19c0.01-0.44 0.09-0.73 0.26-0.88h1.46 c-0.14 0.15-0.21 0.45-0.21 0.92l0.01 1.04c0 0.63-0.35 0.99-1.06 1.08c0.71 0.1 1.1 0.5 1.1 1.09l-0.01 1 c0 0.5 0.1 0.8 0.2 0.99h-1.46c-0.17-0.15-0.26-0.45-0.26-0.89v-1.18c0-0.15-0.05-0.27-0.14-0.36 c-0.09-0.09-0.21-0.14-0.35-0.14l-0.01 2.58h-1.59V51.77z" fill="#D02110"/>
    <path d="M35.12 54.43l-1.58 0.03l-0.02-1.06c-0.01-0.31-0.03-0.5-0.06-0.58c-0.03-0.07-0.11-0.11-0.23-0.11 c-0.13 0-0.21 0.05-0.25 0.14s-0.05 0.29-0.04 0.6l0.05 2.82c0.01 0.3 0 0.5 0.1 0.58c0.04 0.1 0.1 0.1 0.2 0.1 c0.12 0 0.19-0.05 0.23-0.14c0.03-0.09 0.05-0.3 0.04-0.63l-0.01-0.76l1.58-0.03l0 0.24c0.01 0.63-0.03 1.07-0.11 1.3 c-0.09 0.26-0.28 0.5-0.58 0.7c-0.3 0.2-0.67 0.31-1.12 0.32c-0.46 0.01-0.85-0.07-1.15-0.23c-0.3-0.16-0.51-0.39-0.61-0.68 c-0.1-0.3-0.16-0.74-0.17-1.34l-0.03-1.78c-0.01-0.44 0-0.76 0.03-0.98c0.03-0.22 0.11-0.43 0.26-0.64 c0.15-0.21 0.35-0.37 0.61-0.49c0.26-0.12 0.56-0.18 0.91-0.19c0.47-0.01 0.8 0.1 1.2 0.25c0.31 0.2 0.5 0.4 0.6 0.7 c0.1 0.3 0.2 0.7 0.2 1.25L35.12 54.43z" fill="#D02110"/>
    <path d="M28.86 53.56c-0.02-0.28-0.05-0.46-0.09-0.54c-0.04-0.08-0.1-0.11-0.2-0.1c-0.08 0.01-0.14 0.04-0.18 0.1 c-0.04 0.06-0.05 0.25-0.03 0.57l0.2 2.83c0.02 0.3 0.1 0.6 0.1 0.65c0.03 0.1 0.1 0.1 0.2 0.1 c0.11-0.01 0.17-0.06 0.2-0.16c0.02-0.1 0.02-0.33 0-0.68L28.86 53.56L28.86 53.56z M30.58 55.44c0.04 0.6 0.1 1 0.1 1.3 c-0.01 0.26-0.08 0.49-0.22 0.71c-0.13 0.22-0.33 0.4-0.58 0.53c-0.25 0.13-0.54 0.21-0.89 0.23c-0.32 0.02-0.62-0.01-0.89-0.1 c-0.27-0.09-0.48-0.23-0.66-0.43c-0.17-0.2-0.28-0.42-0.33-0.67c-0.05-0.25-0.09-0.68-0.14-1.31l-0.07-1.03 c-0.04-0.61-0.06-1.04-0.05-1.3c0.01-0.26 0.08-0.49 0.22-0.72c0.14-0.22 0.33-0.39 0.58-0.52c0.25-0.13 0.54-0.21 0.89-0.23 c0.33-0.02 0.6 0 0.9 0.1c0.27 0.1 0.5 0.2 0.7 0.43c0.17 0.2 0.3 0.4 0.3 0.67c0.05 0.2 0.1 0.7 0.1 1.3 L30.58 55.44z" fill="#D02110"/>
    <path d="M25.56 52.33l0.85 6.02l-1.37 0.19l-0.57-4.06l0.02 4.14l-0.97 0.14l-1.13-3.89l0.56 3.97l-1.37 0.2 l-0.85-6.01l2.03-0.29c0.11 0.3 0.2 0.8 0.4 1.25l0.43 1.5l-0.04-2.86L25.56 52.33z" fill="#D02110"/>
</svg>